<?xml version="1.0" standalone="no"?>
<!DOCTYPE svg PUBLIC "-//W3C//DTD SVG 20010904//EN"
 "http://www.w3.org/TR/2001/REC-SVG-20010904/DTD/svg10.dtd">
<svg version="1.0" xmlns="http://www.w3.org/2000/svg"
 width="1875.000000pt" height="1875.000000pt" viewBox="0 0 1875.000000 1875.000000"
 preserveAspectRatio="xMidYMid meet">
<metadata>
Created by potrace 1.16, written by Peter Selinger 2001-2019
</metadata>
<g transform="translate(0.000000,1875.000000) scale(0.100000,-0.100000)"
fill="#000000" stroke="none">
<path d="M9428 14430 c-243 -44 -444 -189 -551 -398 -88 -171 -81 -19 -87
-1682 -6 -1633 0 -1503 -70 -1584 -96 -109 -269 -111 -365 -4 -75 83 -69 -11
-75 1208 l-5 1095 -22 58 c-83 220 -292 367 -523 367 -259 0 -490 -188 -544
-440 -11 -51 -14 -202 -15 -719 -1 -721 1 -690 -64 -767 -88 -105 -275 -103
-368 3 -64 73 -64 71 -69 488 l-5 380 -34 63 c-40 74 -94 124 -171 160 -46 22
-70 26 -140 27 -77 0 -92 -3 -152 -33 -81 -40 -149 -111 -177 -188 -18 -46
-21 -78 -21 -194 l0 -140 150 0 150 0 0 106 c0 121 8 144 50 144 19 0 33 -7
40 -19 6 -13 10 -143 10 -354 0 -184 4 -359 10 -388 5 -30 28 -90 50 -135 68
-139 211 -253 361 -289 302 -71 602 114 674 416 12 54 15 168 15 713 0 472 3
659 12 688 16 53 88 132 140 153 52 21 141 22 189 2 49 -20 106 -72 132 -121
l22 -41 5 -1095 5 -1095 22 -58 c69 -182 212 -315 389 -362 80 -21 207 -21
280 0 198 57 354 216 399 407 13 54 15 267 15 1483 0 1516 0 1497 49 1592 58
115 167 206 285 238 102 28 225 18 310 -24 133 -65 230 -190 256 -330 6 -33
10 -439 10 -1080 0 -889 2 -1035 15 -1085 51 -193 216 -356 407 -401 308 -72
612 122 677 433 7 34 11 213 11 505 l0 452 24 50 c91 193 348 194 454 1 15
-28 18 -84 22 -526 l5 -495 26 -67 c36 -93 81 -159 153 -224 221 -200 550
-191 762 20 47 47 81 93 102 136 55 114 62 160 62 417 l0 233 -152 0 -153 0 3
-197 c2 -110 -2 -218 -7 -245 -31 -140 -162 -227 -300 -197 -73 15 -129 61
-166 134 l-30 60 -3 470 c-2 514 -3 517 -64 639 -42 84 -153 192 -240 234 -73
36 -178 62 -248 62 -132 0 -275 -58 -375 -151 -77 -72 -118 -135 -153 -231
l-27 -73 -5 -490 c-4 -389 -8 -495 -19 -515 -52 -95 -128 -143 -226 -143 -33
0 -76 7 -96 15 -53 23 -110 77 -133 128 -21 44 -21 57 -26 1125 l-5 1080 -31
88 c-40 109 -82 181 -158 264 -102 112 -231 191 -371 228 -71 19 -240 28 -307
15z"/>
<path d="M2227 9269 c-231 -24 -405 -128 -479 -285 -57 -122 -49 -304 18 -407
89 -136 201 -184 499 -217 419 -45 498 -61 542 -114 21 -25 24 -37 20 -70 -20
-148 -281 -241 -541 -192 -158 30 -377 113 -469 178 -16 11 -30 18 -33 16 -7
-8 -104 -251 -101 -255 2 -1 48 -23 102 -49 114 -53 298 -117 402 -138 222
-47 498 -20 679 65 228 108 323 366 216 592 -83 177 -232 240 -662 282 -208
20 -296 33 -340 52 -146 60 -100 208 83 265 101 32 293 32 422 0 101 -25 247
-92 317 -146 l46 -35 40 67 c98 168 99 170 77 187 -11 8 -78 44 -150 80 -222
111 -439 150 -688 124z"/>
<path d="M6148 9269 c-320 -34 -539 -172 -668 -420 -60 -116 -81 -209 -81
-355 1 -196 53 -346 171 -492 173 -212 481 -318 833 -284 204 19 345 70 474
168 187 143 293 361 294 604 1 134 -21 230 -76 345 -121 250 -352 399 -673
434 -114 12 -160 12 -274 0z m277 -264 c112 -24 207 -75 286 -154 77 -77 111
-140 134 -248 19 -86 18 -142 0 -221 -56 -236 -255 -393 -520 -409 -182 -11
-336 41 -456 154 -166 157 -206 391 -104 599 65 133 212 245 365 278 87 19
209 19 295 1z"/>
<path d="M3480 8495 l0 -755 150 0 150 0 2 328 3 327 473 3 472 2 0 -330 0
-330 155 0 155 0 0 755 0 755 -155 0 -155 0 0 -300 0 -300 -475 0 -475 0 0
300 0 300 -150 0 -150 0 0 -755z"/>
<path d="M7530 8496 l0 -756 155 0 155 0 0 304 0 304 393 5 c422 5 476 11 575
61 168 85 256 297 207 504 -38 160 -136 257 -312 309 -51 15 -129 17 -615 21
l-558 3 0 -755z m1007 493 c79 -14 122 -42 151 -99 45 -89 19 -198 -60 -243
-66 -39 -146 -47 -480 -47 l-308 0 0 200 0 200 317 0 c186 0 343 -5 380 -11z"/>
<path d="M9480 8496 l0 -756 468 0 c505 0 597 7 725 53 250 91 404 313 425
612 20 284 -44 493 -198 647 -61 61 -95 86 -161 117 -151 72 -170 74 -746 78
l-513 4 0 -755z m941 490 c100 -18 178 -58 238 -121 92 -97 125 -197 125 -375
-1 -222 -76 -371 -226 -444 -92 -45 -182 -55 -489 -56 -243 0 -278 2 -283 16
-3 9 -6 236 -6 505 l0 489 283 0 c191 -1 306 -5 358 -14z"/>
<path d="M11432 8688 c3 -557 4 -564 27 -633 51 -154 127 -227 301 -287 200
-69 588 -75 821 -12 201 54 305 147 356 321 15 51 17 128 21 616 l3 557 -140
0 -141 0 -1 -452 c-1 -249 -1 -456 0 -460 4 -29 -22 -165 -38 -197 -60 -116
-242 -180 -481 -167 -218 11 -339 68 -394 186 -20 44 -21 61 -24 568 l-3 522
-155 0 -155 0 3 -562z"/>
<path d="M13390 8495 l0 -755 140 0 140 0 0 510 c0 281 3 510 8 510 4 -1 243
-230 532 -510 l525 -510 128 0 127 0 0 755 0 755 -140 0 -140 0 0 -500 c0
-275 -3 -500 -6 -500 -6 0 -383 365 -823 797 l-206 202 -142 1 -143 0 0 -755z"/>
<path d="M15460 9248 c0 -2 -1 -342 -3 -756 l-2 -752 153 0 152 0 0 258 0 257
62 45 c34 25 91 66 127 93 36 26 68 47 71 47 3 0 140 -158 304 -350 l300 -350
189 0 c179 0 189 1 176 18 -28 35 -618 738 -726 863 -13 15 22 46 349 309 200
161 370 299 378 306 12 12 -18 14 -192 14 l-205 0 -74 -58 c-41 -32 -193 -150
-339 -262 -146 -113 -299 -231 -340 -264 l-75 -59 -3 322 -2 321 -150 0 c-83
0 -150 -1 -150 -2z"/>
<path d="M10860 6924 c0 -4 33 -51 73 -105 69 -94 74 -98 110 -99 20 0 37 2
37 5 0 3 -30 50 -67 105 l-66 100 -44 0 c-23 0 -43 -3 -43 -6z"/>
<path d="M5840 6638 c-91 -127 -87 -118 -41 -118 38 0 44 5 125 99 48 54 86
101 86 105 0 3 -24 6 -52 6 l-53 -1 -65 -91z"/>
<path d="M6773 6713 c-7 -2 -13 -18 -13 -34 0 -27 2 -29 28 -22 66 17 102 -1
102 -52 0 -24 -7 -39 -26 -52 -24 -18 -25 -22 -13 -41 17 -27 18 -27 60 1 70
47 75 158 9 192 -27 14 -120 19 -147 8z"/>
<path d="M10690 6615 l-95 -95 45 0 c42 0 49 4 118 73 l74 72 66 -73 c63 -68
69 -72 110 -72 23 0 42 3 42 8 0 4 -39 47 -88 95 -84 84 -89 87 -132 87 -44 0
-48 -3 -140 -95z"/>
<path d="M5280 6175 l0 -525 48 0 47 0 0 525 0 525 -47 0 -48 0 0 -525z"/>
<path d="M14840 6175 l0 -525 45 0 45 0 0 525 0 525 -45 0 -45 0 0 -525z"/>
<path d="M3020 6436 l0 -226 -40 0 -40 0 0 -45 0 -45 40 0 40 0 0 -235 0 -235
199 0 c230 0 280 7 378 55 151 74 233 231 233 445 0 193 -76 356 -202 436 -88
56 -146 67 -385 72 l-223 4 0 -226z m475 109 c143 -50 221 -166 232 -345 14
-213 -55 -360 -201 -426 -58 -27 -70 -29 -233 -32 l-173 -4 0 191 0 190 108 3
107 3 3 43 3 42 -110 0 -111 0 0 181 0 181 163 -4 c120 -4 175 -10 212 -23z"/>
<path d="M12667 6653 c-5 -8 -59 -152 -277 -738 -43 -115 -83 -222 -89 -237
l-11 -28 53 0 52 0 55 153 55 152 210 0 210 0 55 -152 55 -153 52 0 53 0 -11
28 c-6 15 -80 214 -165 442 -85 228 -165 442 -177 475 l-23 60 -46 3 c-25 2
-49 -1 -51 -5z m142 -374 c45 -124 81 -228 81 -232 0 -4 -79 -7 -175 -7 -96 0
-175 3 -175 8 0 4 38 113 85 242 47 129 85 237 85 240 1 16 27 -48 99 -251z"/>
<path d="M4127 6393 c-64 -22 -131 -83 -152 -138 -23 -58 -16 -74 31 -71 29 2
40 9 52 32 39 76 92 108 182 108 124 0 179 -49 188 -165 l5 -69 -29 0 c-87 -1
-276 -21 -322 -35 -57 -17 -115 -62 -138 -108 -21 -39 -20 -137 2 -179 45 -89
106 -122 229 -123 79 0 96 3 142 27 29 16 65 44 80 63 15 19 30 35 33 35 3 0
6 -24 7 -52 1 -29 1 -56 2 -60 1 -12 79 -10 83 2 2 5 1 142 -2 304 l-5 294
-30 44 c-19 26 -51 54 -85 73 -46 24 -68 29 -140 32 -60 2 -99 -2 -133 -14z
m303 -435 c0 -78 -16 -121 -60 -166 -94 -94 -272 -93 -331 1 -43 68 -3 161 80
188 37 12 154 25 254 28 l57 1 0 -52z"/>
<path d="M8500 6401 c-154 -50 -233 -181 -231 -380 2 -217 111 -361 283 -378
97 -9 168 16 236 83 l52 53 0 -190 0 -189 50 0 50 0 0 500 0 500 -45 0 -44 0
-3 -71 -3 -71 -31 44 c-46 65 -119 101 -214 105 -41 1 -86 -1 -100 -6z m158
-83 c35 -8 60 -25 97 -62 62 -62 85 -126 85 -232 0 -174 -100 -298 -240 -297
-97 1 -167 50 -212 148 -33 72 -33 227 0 301 30 66 87 122 143 139 56 17 70
18 127 3z"/>
<path d="M10723 6396 c-145 -46 -225 -177 -225 -370 0 -157 47 -264 145 -332
123 -85 343 -64 436 41 31 36 61 91 61 115 0 5 -19 10 -43 10 -38 0 -44 -3
-61 -35 -57 -106 -235 -134 -346 -54 -47 34 -86 108 -96 182 l-7 47 282 0 281
0 0 64 c0 37 -9 93 -21 132 -28 90 -108 174 -189 198 -64 19 -159 20 -217 2z
m160 -75 c87 -21 158 -106 170 -203 l5 -38 -234 0 c-261 0 -244 -6 -219 76 37
123 155 193 278 165z"/>
<path d="M11530 6401 c-48 -15 -87 -40 -123 -80 l-37 -41 0 60 0 60 -45 0 -45
0 0 -375 0 -375 48 0 47 0 0 248 c0 275 4 299 62 363 61 67 173 86 256 42 39
-20 50 -31 73 -73 17 -31 19 -63 22 -307 l3 -273 45 0 c28 0 44 4 44 13 0 6 0
133 0 282 l0 270 -30 61 c-32 66 -77 104 -146 123 -44 12 -136 13 -174 2z"/>
<path d="M13480 6393 c-26 -9 -66 -38 -97 -69 l-53 -53 0 65 0 64 -45 0 -45 0
0 -500 0 -500 45 0 45 0 0 196 0 196 33 -43 c17 -23 57 -56 87 -73 50 -28 63
-31 140 -31 75 0 91 3 138 29 100 56 155 146 172 284 24 190 -44 353 -174 419
-65 34 -178 41 -246 16z m143 -72 c62 -15 112 -56 148 -124 28 -53 34 -74 37
-149 6 -113 -15 -181 -75 -248 -49 -54 -91 -73 -168 -73 -90 0 -163 54 -209
153 -17 36 -21 65 -21 145 1 122 24 185 92 244 60 53 121 69 196 52z"/>
<path d="M14287 6396 c-60 -22 -112 -61 -138 -103 l-24 -38 -3 73 -3 72 -44 0
-45 0 0 -500 0 -500 50 0 50 0 0 198 c0 197 0 197 19 166 49 -81 157 -131 263
-121 175 16 288 162 288 374 0 172 -60 297 -171 358 -64 34 -179 45 -242 21z
m182 -96 c51 -25 96 -81 118 -145 23 -64 22 -202 -1 -264 -45 -122 -151 -184
-271 -159 -70 15 -146 90 -169 167 -20 68 -21 182 -2 245 47 155 192 224 325
156z"/>
<path d="M15283 6392 c-67 -24 -113 -60 -152 -119 -101 -152 -87 -404 28 -536
95 -107 311 -129 438 -44 51 34 98 95 109 140 6 26 5 27 -39 27 -42 0 -47 -3
-62 -32 -47 -99 -213 -135 -322 -72 -71 41 -123 132 -123 216 l0 28 281 0 282
0 -5 84 c-9 141 -67 239 -173 294 -67 34 -186 41 -262 14z m184 -77 c84 -25
142 -101 155 -205 l3 -25 -232 -3 c-261 -3 -243 -9 -218 76 24 79 83 138 165
163 39 12 72 10 127 -6z"/>
<path d="M4690 6025 l0 -375 50 0 50 0 0 375 0 375 -50 0 -50 0 0 -375z"/>
<path d="M5480 6393 c0 -5 61 -174 137 -376 l137 -368 -19 -56 c-11 -31 -34
-71 -51 -90 -28 -29 -37 -33 -83 -33 l-51 0 0 -40 c0 -44 -1 -43 80 -40 25 1
62 11 83 23 68 38 74 51 336 760 45 120 81 220 81 222 0 3 -22 5 -49 5 l-48 0
-114 -325 c-62 -179 -116 -319 -120 -312 -3 6 -55 153 -115 325 l-109 312 -47
0 c-27 0 -48 -3 -48 -7z"/>
<path d="M6542 6108 c3 -263 5 -297 22 -328 44 -84 115 -130 211 -138 94 -7
166 18 226 78 l49 49 0 -59 0 -60 45 0 45 0 0 375 0 375 -44 0 -44 0 -4 -252
c-3 -216 -6 -259 -21 -293 -38 -85 -107 -129 -204 -127 -69 1 -109 17 -146 62
-42 49 -47 89 -47 358 l0 252 -46 0 -45 0 3 -292z"/>
<path d="M7240 6394 c0 -4 25 -75 56 -158 181 -486 214 -579 214 -597 0 -28
-46 -122 -71 -145 -12 -11 -42 -21 -72 -24 -52 -5 -52 -5 -50 -39 1 -18 4 -35
7 -38 11 -12 108 -3 141 13 38 18 82 73 110 139 9 22 53 137 97 255 43 118
111 299 149 401 38 102 69 189 69 192 0 4 -22 7 -48 7 l-48 0 -48 -137 c-94
-272 -178 -508 -180 -511 -2 -1 -54 144 -116 323 l-113 325 -48 0 c-27 0 -49
-3 -49 -6z"/>
<path d="M9099 6173 c-1 -126 -1 -253 1 -283 2 -64 29 -133 68 -173 109 -115
343 -95 422 36 l20 32 0 -67 0 -68 45 0 45 0 0 375 0 375 -47 0 -48 0 0 -248
c0 -265 -5 -296 -52 -353 -41 -48 -98 -72 -170 -71 -90 1 -145 36 -178 114
-12 31 -15 85 -15 298 l0 260 -45 0 -45 0 -1 -227z"/>
<path d="M9800 6393 c0 -5 61 -174 137 -376 l136 -368 -17 -54 c-9 -30 -32
-70 -50 -90 -30 -31 -39 -35 -85 -35 l-51 0 0 -40 c0 -44 -1 -43 80 -40 65 3
113 31 149 89 27 45 92 212 287 739 35 95 64 175 64 178 0 2 -22 4 -49 4 l-48
0 -113 -325 c-63 -179 -115 -323 -117 -322 -3 4 -74 204 -176 500 l-51 147
-48 0 c-26 0 -48 -3 -48 -7z"/>
<path d="M4185 5525 c-44 -43 -28 -97 33 -114 27 -8 36 -6 57 12 35 32 37 75
5 107 -27 27 -66 25 -95 -5z"/>
</g>
</svg>
